<?xml version="1.0" encoding="UTF-8"?><svg version="1.1" width="31px" height="31px" viewBox="0 0 31.0 31.0" xmlns="http://www.w3.org/2000/svg" xmlns:xlink="http://www.w3.org/1999/xlink"><defs><clipPath id="i0"><path d="M15,0 C23.2842712,0 30,6.71572875 30,15 C30,23.2842712 23.2842712,30 15,30 C6.71572875,30 0,23.2842712 0,15 C0,6.71572875 6.71572875,0 15,0 Z"></path></clipPath><clipPath id="i1"><path d="M6.97,0 L13.94,6.97 L13.94,9.26 L7.89,3.21 L7.89,18.42 L6.07,18.42 L6.07,3.2 L6.06,3.2 L0,9.26 L0,6.97 L6.97,0 Z"></path></clipPath></defs><g transform="translate(0.44000000000005457 0.5599999999999454)"><g clip-path="url(#i0)"><polygon points="0,0 30,0 30,30 0,30 0,0" stroke="none" fill="#C3CBCB"></polygon></g><g transform="translate(8.279999999999973 6.039999999999964)"><g clip-path="url(#i1)"><polygon points="0,0 13.94,0 13.94,18.42 0,18.42 0,0" stroke="none" fill="#6B7E7C"></polygon></g></g></g></svg>