<?xml version="1.0" encoding="UTF-8"?><svg version="1.1" width="31px" height="31px" viewBox="0 0 31.0 31.0" xmlns="http://www.w3.org/2000/svg" xmlns:xlink="http://www.w3.org/1999/xlink"><defs><clipPath id="i0"><path d="M15,0 C23.2842712,0 30,6.71572875 30,15 C30,23.2842712 23.2842712,30 15,30 C6.71572875,30 0,23.2842712 0,15 C0,6.71572875 6.71572875,0 15,0 Z"></path></clipPath><clipPath id="i1"><path d="M13.97,0 L13.97,9.35 L2.38,9.35 L6.95,13.92 L5.23,13.92 L0,8.69 L5.23,3.46 L6.95,3.46 L2.38,8.03 L12.6,8.03 L12.6,0 L13.97,0 Z"></path></clipPath></defs><g transform="translate(0.44000000000005457 0.5599999999999454)"><g clip-path="url(#i0)"><polygon points="0,0 30,0 30,30 0,30 0,0" stroke="none" fill="#C3CBCB"></polygon></g><g transform="translate(6.4799999999999045 9.010000000000105)"><g clip-path="url(#i1)"><polygon points="0,0 13.97,0 13.97,13.92 0,13.92 0,0" stroke="none" fill="#6B7E7C"></polygon></g></g></g></svg>