<?xml version="1.0" encoding="UTF-8"?><svg version="1.1" width="90px" height="90px" viewBox="0 0 90.0 90.0" xmlns="http://www.w3.org/2000/svg" xmlns:xlink="http://www.w3.org/1999/xlink"><defs><clipPath id="i0"><path d=""></path></clipPath><clipPath id="i1"><path d="M29.981,0 L30.024,0.034 C30.071,0.073 30.118,0.108 30.166,0.144 C30.199,0.101 30.232,0.059 30.265,0.019 L30.5,0.275 L30.736,0.019 C30.875,0.188 31.026,0.391 31.091,0.616 L31.129,0.766 C31.153,0.867 31.182,0.968 31.225,1.065 L31.519,1.385 C31.553,1.406 31.578,1.429 31.619,1.446 C31.655,1.461 31.667,1.506 31.678,1.545 L31.685,1.568 C31.694,1.595 31.699,1.623 31.705,1.651 C31.733,1.793 31.769,1.971 32.178,1.969 C32.206,1.968 32.235,1.967 32.266,1.965 C32.282,1.98 32.297,2.016 32.305,2.032 C32.332,2.095 32.362,2.156 32.391,2.218 C32.47,2.381 32.552,2.55 32.578,2.731 C32.603,2.913 32.584,3.111 32.562,3.322 L32.655,3.324 C32.632,3.279 32.628,3.245 32.628,3.218 C32.629,3.214 32.634,3.205 32.643,3.193 C32.735,3.081 32.838,2.998 32.861,2.999 C32.973,3.034 33.121,3.109 33.189,3.274 C33.249,3.421 33.33,3.523 33.423,3.604 C33.624,3.548 33.805,3.518 34.004,3.517 C34.084,3.516 34.16,3.52 34.231,3.524 L34.31,3.799 L34.401,4.12 L34.413,4.16 L34.496,4.16 L34.602,4.159 L34.819,4.159 C35.008,4.026 35.102,4.014 35.135,4.177 C35.315,4.207 35.302,4.292 35.154,4.463 C35.154,4.471 35.155,4.474 35.155,4.482 L35.155,4.659 L35.154,4.756 L35.153,4.83 L35.198,4.841 L35.553,4.924 L35.857,4.995 C35.86,5.059 35.865,5.128 35.864,5.201 C35.863,5.38 35.83,5.545 35.768,5.726 C35.857,5.811 35.971,5.884 36.132,5.939 C36.315,6 36.397,6.134 36.436,6.235 C36.436,6.256 36.346,6.35 36.222,6.432 C36.208,6.441 36.198,6.445 36.196,6.446 C36.164,6.446 36.127,6.443 36.077,6.422 C36.024,6.4 35.953,6.394 35.89,6.389 C35.863,6.388 35.835,6.385 35.811,6.381 C35.772,6.374 35.733,6.366 35.694,6.359 L35.69375,6.39825 L35.692,6.429 L35.684,6.532 L35.75,6.529 C35.862,6.523 35.972,6.515 36.079,6.506 C36.312,6.486 36.531,6.469 36.733,6.492 C36.932,6.515 37.118,6.589 37.298,6.661 C37.367,6.687 37.434,6.714 37.504,6.739 C37.522,6.745 37.561,6.759 37.577,6.774 C37.575,6.802 37.575,6.829 37.574,6.854 C37.572,7.223 37.767,7.256 37.925,7.283 C37.956,7.288 37.987,7.292 38.016,7.3 L38.042,7.306 C38.086,7.316 38.135,7.328 38.151,7.359 C38.322,7.691 38.617,7.748 38.902,7.803 C38.958,7.814 39.014,7.826 39.069,7.838 C39.317,7.896 39.541,8.033 39.728,8.16 C39.805,8.212 39.862,8.331 39.87,8.455 C39.894,8.869 40.114,8.901 40.277,8.889 C40.345,8.884 40.415,8.862 40.483,8.842 C40.54,8.825 40.594,8.809 40.642,8.802 C41.126,8.742 41.42,9.033 41.54,9.691 C41.573,9.872 41.65,9.999 41.722,10.121 C41.751,10.167 41.779,10.214 41.804,10.262 C41.823,10.298 41.85,10.311 41.872,10.321 C41.879,10.325 41.887,10.328 41.893,10.333 C41.948,10.385 42.001,10.439 42.053,10.492 C42.328,10.771 42.611,11.059 43.085,10.992 C43.225,10.973 43.346,11.182 43.405,11.398 C43.466,11.623 43.575,11.7 43.721,11.744 C44.037,11.842 44.196,12.146 44.192,12.649 C44.192,12.68 44.191,12.712 44.189,12.745 C44.188,12.769 44.188,12.794 44.188,12.816 C44.185,13.167 44.29,13.361 44.501,13.39 C44.642,13.41 44.728,13.506 44.779,13.7 C44.822,13.861 44.93,13.932 45.048,13.998 C45.353,14.168 45.599,14.323 45.778,14.634 C45.966,14.965 46.228,15.369 46.577,15.574 C46.899,15.764 47.153,15.95 47.24,16.457 C47.271,16.639 47.418,16.737 47.676,16.748 C47.892,16.756 47.97,16.855 47.968,17.117 C47.968,17.25 48.019,17.36 48.121,17.446 C48.197,17.509 48.295,17.552 48.428,17.583 C48.461,17.702 48.508,17.791 48.578,17.86 C48.673,17.952 48.795,17.998 48.942,17.997 C49.231,17.996 49.34,18.068 49.349,18.263 C49.361,18.496 49.469,18.629 49.67,18.657 C50.231,18.736 50.436,18.966 50.646,19.258 C50.872,19.573 51.319,19.81 51.684,19.981 C52.027,20.143 52.198,20.366 52.387,20.642 C52.46,20.748 52.538,20.847 52.715,20.885 C52.931,20.932 53.036,21.009 53.058,21.138 C53.091,21.328 53.304,21.423 53.692,21.421 C53.717,21.421 53.744,21.42 53.771,21.42 C53.807,21.418 53.843,21.417 53.877,21.417 C54.433,21.413 54.769,21.557 54.877,21.843 C54.926,21.976 55.011,22.074 55.259,22.13 C55.498,22.182 55.729,22.292 55.707,22.419 C55.632,22.848 55.951,23.104 56.259,23.352 C56.318,23.401 56.378,23.449 56.434,23.498 C56.441,23.503 56.444,23.511 56.448,23.517 C56.46,23.537 56.474,23.562 56.514,23.578 C56.567,23.602 56.619,23.627 56.67,23.653 C56.804,23.719 56.944,23.788 57.144,23.818 C57.871,23.927 58.192,24.192 58.126,24.63 C58.119,24.674 58.101,24.723 58.082,24.774 C58.059,24.835 58.036,24.9 58.03,24.961 C58.017,25.109 58.052,25.308 58.51,25.33 C58.647,25.337 58.778,25.388 58.836,25.458 C58.975,25.627 59.127,25.83 59.191,26.055 C59.205,26.105 59.218,26.155 59.229,26.206 C59.29,26.464 59.353,26.73 59.72,26.886 C59.755,26.9 59.767,26.945 59.779,26.985 L59.785,27.007 C59.795,27.034 59.799,27.062 59.805,27.09 C59.834,27.232 59.87,27.41 60.278,27.408 C60.306,27.407 60.336,27.407 60.367,27.405 C60.383,27.42 60.398,27.455 60.405,27.471 C60.433,27.534 60.462,27.595 60.492,27.658 C60.571,27.821 60.652,27.99 60.678,28.17 C60.703,28.353 60.684,28.55 60.663,28.762 C60.653,28.859 60.644,28.958 60.637,29.06 L60.634,29.119 L60.747,29.112 C60.77,29.11 60.792,29.11 60.817,29.109 C60.843,29.109 60.871,29.11 60.899,29.11 L61,29.11 L60.713,29.445 C60.701,29.288 60.631,29.109 60.19,29.112 C60.143,29.112 60.092,29.114 60.038,29.118 C60.003,29.121 59.97,29.122 59.94,29.122 C59.716,29.125 59.588,29.056 59.547,28.914 C59.517,28.81 59.503,28.699 59.489,28.59 L59.479,28.516 C59.435,28.179 59.291,27.864 58.541,27.84 C58.339,27.834 58.265,27.766 58.332,27.651 C58.516,27.331 58.38,27.143 57.904,27.059 C57.823,27.046 57.754,27.012 57.712,26.968 C57.669,26.921 57.623,26.876 57.576,26.831 C57.366,26.627 57.169,26.435 57.208,26.149 C57.221,26.051 57.163,25.964 57.023,25.872 C56.962,25.831 56.883,25.801 56.807,25.772 C56.71,25.735 56.618,25.699 56.578,25.648 C56.531,25.586 56.539,25.494 56.548,25.395 C56.553,25.346 56.558,25.295 56.556,25.244 L56.555,25.195 L56.461,25.196 C56.422,25.196 56.381,25.194 56.341,25.194 C56.293,25.194 56.243,25.193 56.194,25.193 C56.122,25.193 56.059,25.196 55.997,25.201 C55.95,25.205 55.904,25.207 55.861,25.207 C55.539,25.209 55.361,25.109 55.361,24.924 C55.362,24.606 55.088,24.441 54.679,24.288 C54.394,24.181 54.225,24.075 54.263,23.875 C54.302,23.673 54.115,23.565 53.724,23.563 C53.589,23.562 53.522,23.548 53.511,23.538 C53.501,23.419 53.38,23.342 53.262,23.267 C53.07,23.144 52.961,23.059 53.145,22.856 C53.214,22.781 53.146,22.743 53.101,22.718 L53.085,22.708 C53.045,22.684 53.007,22.658 52.969,22.632 C52.874,22.566 52.775,22.498 52.641,22.449 C52.386,22.354 52.139,22.236 52.078,22.01 C52.037,21.854 51.857,21.72 51.611,21.661 C51.266,21.579 51.104,21.421 50.991,21.277 C50.838,21.083 50.682,20.943 50.5,20.835 L50.17,20.642 C49.412,20.2 48.629,19.743 48.113,19.171 C48.018,19.065 47.86,19.017 47.6,19.013 C47.254,19.009 47.124,18.922 47.092,18.792 C46.966,18.76575 46.87675,18.6728906 46.8523867,18.4397305 L46.8402685,18.2214213 C46.8235556,18.0508889 46.7705,17.9395 46.673,17.867 C46.041,17.4 45.536,16.691 45.048,16.005 C44.976,15.905 44.906,15.805 44.835,15.706 C44.715,15.541 44.56,15.4 44.346,15.262 C44.187,15.159 44.012,15.012 43.922,14.7 C43.857,14.477 43.709,14.315 43.536,14.277 C43.287,14.222 43.157,13.999 43.052,13.768 C42.998,13.647 42.923,13.557 42.85,13.471 C42.821,13.436 42.792,13.402 42.765,13.366 L42.755,13.351 C42.727,13.31 42.685,13.249 42.602,13.311 C42.378,13.478 42.284,13.38 42.148,13.206 C42.066,13.099 41.98,12.99 41.848,12.98 C41.838,12.971 41.823,12.91 41.821,12.788 C41.819,12.434 41.7,12.264 41.477,12.3 C41.255,12.334 41.138,12.181 41.021,11.923 C40.851,11.552 40.668,11.304 40.318,11.305 C40.114,11.306 40.004,11.145 40.005,10.853 C40.005,10.814 40.008,10.773 40.012,10.729 C40.017,10.674 40.02,10.616 40.021,10.552 C40.021,10.507 40.02,10.462 40.02,10.419 C40.019,10.381 40.018,10.345 40.018,10.31 L40.019,10.225 L39.965,10.224 C39.909,10.222 39.852,10.227 39.797,10.231 C39.688,10.239 39.586,10.246 39.518,10.203 C39.461,10.167 39.423,10.084 39.381,9.997 C39.349,9.928 39.316,9.856 39.27,9.801 C39.169,9.675 39.073,9.622 38.965,9.634 C38.649,9.669 38.436,9.49 38.211,9.3 C38.161,9.258 38.112,9.217 38.061,9.177 C38.012,9.14 37.974,9.076 37.959,9.003 C37.867,8.572 37.659,8.449 37.306,8.616 C37.178,8.676 37.104,8.61 37.097,8.427 C37.071,7.748 36.723,7.617 36.35,7.577 L36.268,7.568 C36.148,7.556 36.025,7.543 35.91,7.516 C35.754,7.479 35.678,7.363 35.68,7.16 C35.68,7.132 35.682,7.103 35.685,7.072 C35.689,7.022 35.692,6.976 35.692,6.934 C35.695,6.535 35.496,6.471 35.323,6.46 C35.12,6.447 34.985,6.332 34.884,6.161 C34.593,6.05 34.39,5.892 34.399,5.625 C34.401,5.571 34.377,5.528 34.354,5.486 C34.347,5.472 34.339,5.459 34.333,5.445 C34.311,5.396 34.291,5.345 34.272,5.294 C34.244,5.216 34.195,5.142 34.152,5.067 C34.069,5.028 33.987,4.984 33.9,4.957 C33.844,4.94 33.788,4.923 33.734,4.903 L33.688,4.884 C33.642,4.863 33.595,4.842 33.535,4.843 C33.24,4.851 33.065,4.667 32.943,4.404 C32.754,4.312 32.628,4.19 32.613,4.006 C32.601,3.849 32.53,3.669 32.089,3.672 C32.043,3.673 31.992,3.675 31.937,3.679 C31.902,3.682 31.87,3.683 31.84,3.683 C31.704,3.684 31.607,3.656 31.54,3.605 C31.549,3.649 31.557,3.692 31.564,3.734 C31.577,3.82 31.524,3.94 31.433,4.033 C31.127,4.342 31.257,4.505 31.381,4.601 C31.434,4.641 31.5,4.671 31.565,4.7 C31.618,4.724 31.669,4.747 31.708,4.774 C32.097,5.041 32.077,5.434 31.648,5.977 C31.53,6.126 31.485,6.264 31.442,6.398 C31.426,6.449 31.409,6.499 31.389,6.55 C31.374,6.587 31.384,6.614 31.391,6.635 C31.393,6.642 31.396,6.65 31.396,6.658 C31.394,6.728 31.39,6.801 31.386,6.873 C31.362,7.245 31.337,7.63 31.725,7.886 C31.839,7.961 31.761,8.187 31.634,8.377 C31.501,8.575 31.518,8.699 31.587,8.824 C31.735,9.096 31.609,9.413 31.213,9.766 C31.189,9.788 31.163,9.81 31.136,9.832 L31.079,9.882 C30.803,10.128 30.727,10.333 30.852,10.488 C30.937,10.593 30.923,10.716 30.807,10.886 C30.712,11.026 30.733,11.147 30.765,11.268 C30.847,11.583 30.901,11.852 30.784,12.185 C30.659,12.54 30.528,12.994 30.615,13.361 C30.694,13.702 30.729,13.995 30.394,14.41 C30.274,14.559 30.302,14.722 30.475,14.894 C30.621,15.039 30.6,15.159 30.394,15.343 C30.29,15.437 30.239,15.548 30.244,15.674 C30.249,15.767 30.285,15.86 30.355,15.966 C30.285,16.072 30.249,16.165 30.244,16.259 C30.239,16.384 30.29,16.495 30.394,16.589 C30.6,16.773 30.621,16.894 30.475,17.037 C30.302,17.21 30.274,17.373 30.394,17.522 C30.729,17.937 30.694,18.23 30.615,18.571 C30.528,18.939 30.659,19.392 30.784,19.747 C30.9,20.08 30.847,20.349 30.765,20.665 C30.733,20.786 30.712,20.906 30.807,21.047 C30.923,21.217 30.937,21.339 30.852,21.444 C30.727,21.599 30.803,21.803 31.079,22.051 C31.097,22.067 31.117,22.083 31.136,22.1 C31.163,22.122 31.189,22.144 31.213,22.166 C31.609,22.519 31.735,22.836 31.587,23.108 C31.518,23.233 31.501,23.356 31.634,23.554 C31.761,23.744 31.839,23.97 31.725,24.046 C31.337,24.302 31.361,24.687 31.386,25.059 C31.39,25.131 31.394,25.204 31.396,25.275 C31.396,25.283 31.393,25.29 31.391,25.297 C31.384,25.318 31.374,25.345 31.389,25.383 C31.409,25.433 31.426,25.483 31.442,25.534 C31.485,25.668 31.53,25.806 31.648,25.955 C32.077,26.498 32.097,26.891 31.708,27.158 C31.669,27.185 31.618,27.208 31.565,27.232 C31.5,27.261 31.434,27.291 31.381,27.331 C31.257,27.427 31.127,27.59 31.433,27.899 C31.524,27.992 31.577,28.112 31.564,28.198 C31.53,28.407 31.478,28.647 31.348,28.848 C31.319,28.892 31.289,28.935 31.257,28.978 C31.099,29.2 30.935,29.428 31.073,29.773 C31.087,29.806 31.061,29.846 31.038,29.881 L31.024,29.901 C31.01,29.926 30.991,29.949 30.974,29.972 C30.883,30.092 30.77,30.24 31.06,30.5 C31.08,30.517 31.102,30.536 31.125,30.554 C31.125,30.575 31.108,30.61 31.101,30.626 C31.071,30.688 31.044,30.751 31.016,30.813 C30.944,30.979 30.87,31.15 30.747,31.295 C30.623,31.44 30.455,31.568 30.275,31.703 L30.339,31.764 C30.358,31.717 30.382,31.69 30.402,31.672 C30.406,31.669 30.416,31.666 30.433,31.664 C30.585,31.643 30.722,31.651 30.738,31.666 C30.79,31.762 30.836,31.91 30.755,32.071 C30.683,32.212 30.66,32.337 30.664,32.453 C30.849,32.543 31.001,32.637 31.142,32.764 C31.2,32.814 31.25,32.866 31.298,32.914 L31.138,33.159 L30.952,33.445 L30.929,33.481 L30.988,33.533 L31.063,33.601 L31.128,33.659 L31.202,33.725 C31.208,33.731 31.21,33.734 31.217,33.739 C31.454,33.767 31.53,33.818 31.426,33.955 C31.53,34.091 31.454,34.142 31.217,34.169 C31.21,34.175 31.208,34.178 31.202,34.183 L31.128,34.25 L31.063,34.308 L30.988,34.376 L30.929,34.428 L30.952,34.464 L31.138,34.75 L31.298,34.995 C31.25,35.042 31.2,35.094 31.142,35.145 C31.001,35.271 30.849,35.366 30.664,35.455 C30.66,35.572 30.683,35.697 30.755,35.839 C30.836,35.999 30.79,36.146 30.738,36.242 C30.722,36.258 30.585,36.266 30.433,36.245 C30.416,36.242 30.406,36.239 30.404,36.238 L30.381,36.2151852 C30.3665556,36.1984444 30.3516667,36.1766667 30.339,36.146 C30.318,36.096 30.273,36.046 30.232,36.002 C30.214,35.984 30.196,35.964 30.182,35.946 C30.161,35.916 30.14,35.885 30.117,35.855 C30.094,35.876 30.078,35.89 30.061,35.904 L29.975,35.972 L30.024,36.011 C30.107,36.079 30.192,36.143 30.275,36.205 C30.455,36.341 30.623,36.469 30.747,36.615 C30.87,36.758 30.944,36.93 31.016,37.096 C31.044,37.158 31.071,37.22 31.101,37.283 C31.108,37.299 31.125,37.333 31.125,37.354 C31.102,37.373 31.08,37.391 31.06,37.409 C30.77,37.668 30.883,37.817 30.974,37.937 C30.991,37.96 31.01,37.983 31.024,38.007 L31.038,38.028 C31.061,38.063 31.087,38.103 31.073,38.135 C30.935,38.48 31.099,38.709 31.257,38.93 C31.289,38.974 31.319,39.017 31.348,39.062 C31.478,39.262 31.53,39.502 31.564,39.711 C31.577,39.797 31.524,39.917 31.433,40.01 C31.127,40.319 31.257,40.482 31.381,40.578 C31.434,40.618 31.5,40.648 31.565,40.677 C31.618,40.701 31.669,40.724 31.708,40.751 C32.097,41.018 32.077,41.411 31.648,41.954 C31.53,42.103 31.485,42.241 31.442,42.374 C31.426,42.425 31.409,42.476 31.389,42.527 C31.374,42.564 31.384,42.59 31.391,42.612 C31.393,42.619 31.396,42.626 31.396,42.634 C31.394,42.706 31.39,42.777 31.386,42.849 C31.361,43.222 31.337,43.606 31.725,43.863 C31.839,43.938 31.761,44.164 31.634,44.354 C31.501,44.552 31.518,44.676 31.587,44.801 C31.735,45.073 31.609,45.39 31.213,45.743 C31.189,45.765 31.163,45.787 31.136,45.809 C31.117,45.826 31.097,45.842 31.079,45.859 C30.803,46.105 30.727,46.309 30.852,46.465 C30.937,46.569 30.923,46.692 30.807,46.862 C30.712,47.003 30.733,47.123 30.765,47.245 C30.847,47.56 30.9,47.828 30.784,48.162 C30.659,48.516 30.528,48.97 30.615,49.338 C30.694,49.679 30.729,49.972 30.394,50.387 C30.274,50.535 30.302,50.699 30.475,50.871 C30.621,51.016 30.6,51.136 30.394,51.319 C30.29,51.414 30.239,51.524 30.244,51.65 C30.249,51.743 30.285,51.837 30.355,51.943 C30.285,52.049 30.249,52.141 30.244,52.235 C30.239,52.361 30.29,52.472 30.394,52.565 C30.6,52.75 30.621,52.87 30.475,53.014 C30.302,53.186 30.274,53.349 30.394,53.498 C30.729,53.913 30.694,54.207 30.615,54.547 C30.528,54.915 30.659,55.369 30.784,55.724 L30.7921406,55.7683789 C30.8259375,55.9670312 30.934,56.77225 30.5,56.942 C30.005,57.137 29.283,56.823 29.281,56.196 C29.281,55.958 29.324,55.762 29.28,55.569 C29.253,55.453 29.224,55.338 29.197,55.222 C29.006,54.424 28.81,53.599 28.892,52.864 C28.907,52.729 28.833,52.593 28.652,52.425 L28.5715723,52.3443242 C28.4065937,52.1644844 28.39675,52.041875 28.465,51.943 C28.39675,51.844125 28.4065938,51.72075 28.5715723,51.5407187 L28.7336667,51.3785926 C28.8551944,51.2469722 28.9045,51.1343333 28.892,51.021 C28.81,50.286 29.006,49.461 29.197,48.664 L29.28,48.316 C29.324,48.123 29.325,47.924 29.281,47.689 C29.249,47.515 29.241,47.299 29.42,47.021 C29.548,46.822 29.571,46.612 29.478,46.474 C29.345,46.276 29.427,46.035 29.533,45.805 C29.589,45.684 29.606,45.573 29.622,45.465 C29.629,45.422 29.635,45.379 29.645,45.336 L29.648,45.32 C29.661,45.273 29.679,45.203 29.572,45.193 C29.283,45.168 29.293,45.038 29.333,44.828 C29.358,44.7 29.383,44.568 29.297,44.477 C29.297,44.464 29.334,44.411 29.428,44.324 C29.703,44.071 29.751,43.876 29.566,43.758 C29.383,43.64 29.419,43.457 29.538,43.199 C29.708,42.829 29.772,42.536 29.524,42.312 C29.378,42.183 29.427,41.998 29.655,41.793 C29.686,41.765 29.72,41.738 29.757,41.71 C29.804,41.674 29.851,41.635 29.902,41.59 C29.937,41.558 29.971,41.526 30.005,41.495 L30.089,41.417 L30.156,41.357 L30.118,41.322 C30.08,41.285 30.036,41.252 29.994,41.22 C29.911,41.155 29.833,41.096 29.818,41.021 C29.807,40.959 29.844,40.876 29.883,40.788 C29.914,40.718 29.946,40.647 29.958,40.578 C29.985,40.424 29.958,40.325 29.872,40.265 C29.621,40.087 29.611,39.825 29.6,39.546 C29.597,39.485 29.595,39.424 29.589,39.363 C29.584,39.305 29.607,39.237 29.654,39.175 C29.925,38.811 29.874,38.591 29.494,38.483 C29.356,38.444 29.356,38.349 29.494,38.216 C30.006,37.718 29.862,37.403 29.63,37.137 L29.579,37.078 C29.503,36.992 29.427,36.905 29.366,36.812 C29.285,36.685 29.322,36.555 29.482,36.413 C29.503,36.393 29.527,36.374 29.554,36.353 C29.596,36.321 29.634,36.291 29.667,36.261 C29.981,35.98 29.89,35.808 29.776,35.689 C29.643,35.55 29.637,35.382 29.699,35.197 C29.58,34.932 29.56,34.69 29.775,34.507 C29.818,34.47 29.835,34.424 29.851,34.38 C29.857,34.366 29.862,34.352 29.869,34.338 C29.891,34.289 29.917,34.241 29.944,34.192 C29.985,34.118 30.008,34.035 30.036,33.955 C30.008,33.874 29.985,33.79 29.944,33.716 C29.917,33.668 29.891,33.62 29.869,33.571 C29.862,33.557 29.857,33.543 29.851,33.528 C29.835,33.484 29.818,33.439 29.775,33.401 C29.56,33.218 29.58,32.976 29.699,32.711 C29.637,32.526 29.643,32.359 29.776,32.219 C29.89,32.1 29.981,31.928 29.667,31.648 C29.634,31.619 29.596,31.587 29.554,31.555 C29.527,31.535 29.503,31.515 29.482,31.496 C29.322,31.354 29.285,31.223 29.366,31.096 C29.427,31.005 29.503,30.916 29.579,30.831 L29.63,30.772 C29.862,30.505 30.006,30.19 29.494,29.693 C29.356,29.56 29.356,29.465 29.494,29.425 C29.874,29.317 29.925,29.097 29.654,28.733 C29.607,28.672 29.584,28.603 29.589,28.545 C29.595,28.485 29.597,28.424 29.6,28.362 C29.611,28.084 29.621,27.821 29.872,27.644 C29.958,27.584 29.985,27.484 29.958,27.33 C29.946,27.263 29.914,27.19 29.883,27.121 C29.844,27.032 29.807,26.949 29.818,26.887 C29.833,26.814 29.911,26.753 29.994,26.69 C30.036,26.657 30.08,26.624 30.118,26.587 L30.156,26.551 L30.089,26.491 C30.061,26.466 30.034,26.441 30.005,26.414 C29.971,26.383 29.937,26.351 29.902,26.319 C29.851,26.274 29.804,26.235 29.757,26.199 C29.72,26.171 29.686,26.143 29.655,26.116 C29.427,25.911 29.378,25.727 29.524,25.596 C29.772,25.372 29.708,25.08 29.538,24.709 C29.419,24.452 29.383,24.269 29.566,24.151 C29.751,24.034 29.703,23.838 29.428,23.585 C29.334,23.498 29.297,23.445 29.297,23.432 C29.383,23.342 29.358,23.209 29.333,23.08 C29.293,22.871 29.283,22.74 29.572,22.715 C29.679,22.706 29.661,22.636 29.648,22.59 L29.645,22.573 C29.635,22.529 29.629,22.487 29.622,22.444 C29.606,22.337 29.589,22.225 29.533,22.104 C29.427,21.873 29.345,21.632 29.478,21.434 C29.571,21.296 29.549,21.087 29.42,20.888 C29.241,20.61 29.249,20.394 29.281,20.219 C29.325,19.985 29.324,19.786 29.28,19.592 L29.197,19.245 C29.006,18.447 28.81,17.622 28.892,16.888 C28.907,16.753 28.833,16.617 28.652,16.449 C28.411,16.223 28.387,16.08 28.465,15.966 C28.39675,15.86625 28.4065938,15.7435312 28.5715723,15.5636777 L28.7336667,15.4015926 C28.8551944,15.2699722 28.9045,15.1573333 28.892,15.044 C28.81,14.31 29.006,13.485 29.197,12.687 L29.28,12.339 C29.324,12.147 29.325,11.948 29.281,11.713 C29.249,11.538 29.241,11.322 29.42,11.044 C29.549,10.844 29.571,10.636 29.478,10.498 C29.345,10.3 29.427,10.059 29.533,9.828 C29.589,9.707 29.606,9.595 29.622,9.488 C29.629,9.445 29.635,9.403 29.645,9.359 L29.648,9.342 C29.661,9.297 29.679,9.226 29.572,9.217 C29.283,9.192 29.293,9.061 29.333,8.851 C29.358,8.723 29.383,8.591 29.297,8.5 C29.297,8.488 29.334,8.434 29.428,8.347 C29.703,8.094 29.751,7.898 29.566,7.781 C29.383,7.663 29.419,7.48 29.538,7.223 C29.708,6.853 29.772,6.56 29.524,6.336 C29.378,6.206 29.427,6.021 29.655,5.816 C29.686,5.789 29.72,5.761 29.757,5.733 C29.804,5.697 29.851,5.658 29.902,5.613 C29.937,5.581 29.971,5.55 30.005,5.518 L30.089,5.44 L30.156,5.381 L30.118,5.345 C30.08,5.309 30.036,5.275 29.994,5.243 C29.911,5.179 29.833,5.118 29.818,5.045 C29.807,4.983 29.844,4.899 29.883,4.812 C29.914,4.741 29.946,4.67 29.958,4.602 C29.985,4.448 29.958,4.348 29.872,4.289 C29.621,4.11 29.611,3.848 29.6,3.57 C29.598,3.509 29.595,3.447 29.589,3.387 C29.584,3.328 29.607,3.26 29.654,3.199 C29.824,2.97 29.867,2.798 29.781,2.674 C29.683,2.79 29.641,2.931 29.622,3.077 L29.612,3.151 C29.599,3.259 29.584,3.371 29.555,3.475 C29.514,3.616 29.386,3.685 29.161,3.683 C29.131,3.683 29.099,3.682 29.064,3.679 C29.009,3.675 28.958,3.673 28.912,3.672 C28.471,3.669 28.4,3.849 28.388,4.006 C28.373,4.19 28.247,4.312 28.058,4.404 C27.936,4.667 27.761,4.851 27.466,4.843 C27.406,4.842 27.358,4.863 27.313,4.884 L27.267,4.903 C27.212,4.923 27.157,4.94 27.1,4.957 C27.014,4.984 26.932,5.028 26.849,5.067 C26.806,5.142 26.757,5.216 26.729,5.294 C26.71,5.345 26.69,5.396 26.667,5.445 C26.662,5.459 26.654,5.472 26.647,5.486 C26.624,5.528 26.6,5.571 26.602,5.625 C26.611,5.892 26.408,6.05 26.117,6.161 C26.016,6.332 25.881,6.447 25.677,6.46 C25.504,6.471 25.305,6.535 25.309,6.934 C25.309,6.976 25.312,7.022 25.316,7.072 C25.319,7.103 25.321,7.132 25.321,7.16 C25.323,7.363 25.247,7.479 25.091,7.516 C24.976,7.543 24.853,7.556 24.733,7.568 L24.651,7.577 C24.278,7.617 23.93,7.748 23.904,8.427 C23.897,8.61 23.823,8.676 23.695,8.616 C23.342,8.449 23.134,8.572 23.042,9.003 C23.027,9.076 22.989,9.14 22.94,9.177 C22.889,9.217 22.839,9.258 22.79,9.3 C22.564,9.49 22.352,9.669 22.036,9.634 C21.928,9.622 21.832,9.675 21.731,9.801 C21.685,9.856 21.652,9.928 21.62,9.997 C21.578,10.084 21.54,10.167 21.483,10.203 C21.415,10.246 21.313,10.239 21.204,10.231 C21.149,10.227 21.092,10.222 21.036,10.224 L20.982,10.225 L20.982375,10.363375 L20.981,10.419 C20.981,10.462 20.98,10.507 20.98,10.552 C20.981,10.616 20.983,10.674 20.989,10.729 C20.993,10.773 20.995,10.814 20.996,10.853 C20.997,11.145 20.887,11.306 20.683,11.305 C20.333,11.304 20.15,11.552 19.98,11.923 C19.863,12.181 19.745,12.334 19.524,12.3 C19.301,12.264 19.182,12.434 19.18,12.788 C19.178,12.91 19.163,12.971 19.153,12.98 C19.021,12.99 18.935,13.099 18.853,13.206 C18.717,13.38 18.623,13.478 18.399,13.311 C18.315,13.249 18.274,13.31 18.246,13.351 L18.236,13.366 C18.209,13.402 18.18,13.436 18.151,13.471 C18.078,13.557 18.003,13.647 17.949,13.768 C17.844,13.999 17.714,14.222 17.465,14.277 C17.291,14.315 17.144,14.477 17.079,14.7 C16.989,15.012 16.814,15.159 16.655,15.262 C16.441,15.4 16.286,15.541 16.166,15.706 C16.095,15.805 16.025,15.905 15.953,16.005 C15.465,16.691 14.96,17.4 14.328,17.867 C14.211,17.954 14.158,18.097 14.155,18.331 L14.1486133,18.4397305 C14.12425,18.6728906 14.035,18.76575 13.909,18.792 C13.876,18.922 13.747,19.009 13.401,19.013 C13.141,19.017 12.983,19.065 12.888,19.171 C12.372,19.743 11.589,20.2 10.831,20.642 L10.501,20.835 C10.319,20.943 10.162,21.083 10.01,21.277 C9.897,21.421 9.734,21.579 9.39,21.661 C9.144,21.72 8.964,21.854 8.923,22.01 C8.861,22.236 8.615,22.354 8.36,22.449 C8.226,22.498 8.127,22.566 8.031,22.632 C7.994,22.658 7.956,22.684 7.916,22.708 L7.9,22.718 C7.855,22.743 7.786,22.781 7.856,22.856 C8.04,23.059 7.931,23.144 7.739,23.267 C7.621,23.342 7.5,23.419 7.49,23.538 C7.479,23.548 7.412,23.562 7.277,23.563 C6.886,23.565 6.699,23.673 6.738,23.875 C6.776,24.075 6.607,24.181 6.322,24.288 C5.913,24.441 5.639,24.606 5.64,24.924 C5.64,25.109 5.462,25.209 5.14,25.207 C5.097,25.207 5.051,25.205 5.003,25.201 C4.942,25.196 4.879,25.193 4.807,25.193 C4.758,25.193 4.708,25.194 4.66,25.194 C4.619,25.194 4.579,25.196 4.54,25.196 L4.446,25.195 L4.445,25.244 C4.443,25.295 4.448,25.346 4.453,25.395 C4.462,25.494 4.47,25.586 4.422,25.648 C4.383,25.699 4.291,25.735 4.194,25.772 C4.118,25.801 4.039,25.831 3.978,25.872 C3.838,25.964 3.78,26.051 3.793,26.149 C3.832,26.435 3.634,26.627 3.425,26.831 C3.378,26.876 3.332,26.921 3.289,26.968 C3.247,27.012 3.178,27.046 3.097,27.059 C2.621,27.143 2.485,27.331 2.669,27.651 C2.736,27.766 2.662,27.834 2.46,27.84 C1.71,27.864 1.566,28.179 1.522,28.516 L1.512,28.59 C1.498,28.699 1.484,28.81 1.454,28.914 C1.413,29.056 1.285,29.125 1.061,29.122 C1.031,29.122 0.998,29.121 0.963,29.118 C0.909,29.114 0.858,29.112 0.811,29.112 C0.37,29.109 0.3,29.288 0.287,29.445 L0,29.11 L0.102,29.11 L0.184,29.109 C0.209,29.11 0.231,29.11 0.253,29.112 L0.367,29.119 L0.363,29.06 C0.357,28.958 0.348,28.859 0.338,28.762 C0.317,28.55 0.298,28.353 0.323,28.17 C0.348,27.99 0.43,27.821 0.509,27.658 C0.539,27.595 0.568,27.534 0.596,27.471 C0.603,27.455 0.618,27.42 0.634,27.405 C0.665,27.407 0.695,27.407 0.723,27.408 C1.131,27.41 1.167,27.232 1.196,27.09 C1.202,27.062 1.206,27.034 1.216,27.007 L1.222,26.985 C1.233,26.945 1.246,26.9 1.281,26.886 C1.647,26.73 1.71,26.464 1.772,26.206 C1.783,26.155 1.796,26.105 1.81,26.055 C1.874,25.83 2.026,25.627 2.165,25.458 C2.223,25.388 2.354,25.337 2.491,25.33 C2.948,25.308 2.984,25.109 2.971,24.961 C2.965,24.9 2.942,24.835 2.919,24.774 C2.9,24.723 2.882,24.674 2.875,24.63 C2.809,24.192 3.13,23.927 3.857,23.818 C4.057,23.788 4.196,23.719 4.331,23.653 C4.382,23.627 4.434,23.602 4.487,23.578 C4.527,23.562 4.541,23.537 4.553,23.517 C4.557,23.511 4.56,23.503 4.567,23.498 C4.623,23.449 4.682,23.401 4.742,23.352 C5.05,23.104 5.368,22.848 5.294,22.419 C5.272,22.292 5.503,22.182 5.742,22.13 C5.99,22.074 6.075,21.976 6.124,21.843 C6.232,21.557 6.568,21.413 7.124,21.417 C7.158,21.417 7.194,21.418 7.229,21.42 C7.257,21.42 7.284,21.421 7.309,21.421 C7.65388889,21.4227778 7.86050617,21.3479136 7.92534019,21.1978121 L7.943,21.138 C7.965,21.009 8.07,20.932 8.286,20.885 C8.462,20.847 8.541,20.748 8.614,20.642 C8.802,20.366 8.974,20.143 9.317,19.981 C9.682,19.81 10.129,19.573 10.355,19.258 C10.565,18.966 10.77,18.736 11.331,18.657 C11.532,18.629 11.64,18.496 11.652,18.263 C11.661,18.068 11.77,17.996 12.059,17.997 C12.206,17.998 12.328,17.952 12.423,17.86 C12.493,17.791 12.54,17.702 12.573,17.583 C12.706,17.552 12.804,17.509 12.88,17.446 C12.982,17.36 13.032,17.25 13.032,17.117 C13.031,16.855 13.109,16.756 13.325,16.748 C13.583,16.737 13.73,16.639 13.761,16.457 C13.848,15.95 14.102,15.764 14.424,15.574 C14.773,15.369 15.035,14.965 15.223,14.634 C15.401,14.323 15.648,14.168 15.953,13.998 C16.07,13.932 16.179,13.861 16.222,13.7 C16.273,13.506 16.359,13.41 16.5,13.39 C16.711,13.361 16.816,13.167 16.813,12.816 C16.813,12.794 16.812,12.769 16.812,12.745 C16.81,12.712 16.809,12.68 16.809,12.649 C16.805,12.146 16.964,11.842 17.28,11.744 C17.426,11.7 17.535,11.623 17.596,11.398 C17.655,11.182 17.776,10.973 17.916,10.992 C18.39,11.059 18.673,10.771 18.947,10.492 C19,10.439 19.053,10.385 19.108,10.333 C19.114,10.328 19.122,10.325 19.129,10.321 C19.151,10.311 19.178,10.298 19.197,10.262 C19.222,10.214 19.25,10.167 19.278,10.121 C19.351,9.999 19.428,9.872 19.461,9.691 C19.581,9.033 19.874,8.742 20.359,8.802 C20.407,8.809 20.461,8.825 20.518,8.842 C20.586,8.862 20.656,8.884 20.724,8.889 C20.887,8.901 21.107,8.869 21.131,8.455 C21.139,8.331 21.196,8.212 21.272,8.16 C21.46,8.033 21.684,7.896 21.932,7.838 C21.987,7.826 22.043,7.814 22.099,7.803 C22.384,7.748 22.678,7.691 22.85,7.359 C22.866,7.328 22.915,7.316 22.959,7.306 L22.985,7.3 C23.014,7.292 23.045,7.288 23.076,7.283 C23.234,7.256 23.429,7.223 23.427,6.854 C23.426,6.829 23.426,6.802 23.424,6.774 C23.44,6.759 23.479,6.745 23.497,6.739 C23.566,6.714 23.634,6.687 23.702,6.661 C23.883,6.589 24.069,6.515 24.268,6.492 C24.47,6.469 24.689,6.486 24.922,6.506 C25.029,6.515 25.139,6.523 25.251,6.529 L25.317,6.532 L25.309,6.429 C25.307,6.409 25.307,6.388 25.307,6.366 C25.268,6.366 25.229,6.374 25.19,6.381 C25.166,6.385 25.138,6.388 25.111,6.389 C25.048,6.394 24.977,6.4 24.923,6.422 C24.874,6.443 24.837,6.446 24.808,6.446 C24.803,6.445 24.793,6.441 24.779,6.432 C24.655,6.35 24.565,6.256 24.565,6.235 C24.604,6.134 24.686,6 24.869,5.939 C25.03,5.884 25.144,5.811 25.233,5.726 C25.171,5.545 25.138,5.38 25.137,5.201 C25.136,5.128 25.141,5.059 25.144,4.995 L25.448,4.924 L25.803,4.841 L25.848,4.83 L25.847,4.756 L25.846,4.659 L25.846,4.482 C25.846,4.474 25.847,4.471 25.847,4.463 C25.699,4.292 25.686,4.207 25.866,4.177 C25.899,4.014 25.993,4.026 26.182,4.159 L26.399,4.159 L26.505,4.16 L26.587,4.16 L26.599,4.12 L26.691,3.799 L26.769,3.524 C26.841,3.52 26.917,3.516 26.997,3.517 C27.195,3.518 27.377,3.548 27.578,3.604 C27.671,3.523 27.752,3.421 27.812,3.274 C27.88,3.109 28.028,3.034 28.14,2.999 C28.163,2.998 28.266,3.081 28.357,3.193 C28.367,3.205 28.372,3.214 28.373,3.216 C28.373,3.245 28.369,3.279 28.346,3.324 L28.439,3.322 C28.417,3.111 28.398,2.913 28.423,2.731 C28.449,2.55 28.531,2.381 28.61,2.218 C28.639,2.156 28.669,2.095 28.696,2.032 C28.703,2.016 28.719,1.98 28.735,1.965 C28.766,1.967 28.795,1.968 28.823,1.969 C29.232,1.971 29.267,1.793 29.296,1.651 C29.302,1.623 29.307,1.595 29.316,1.568 L29.323,1.545 C29.334,1.506 29.346,1.461 29.381,1.446 C29.423,1.429 29.448,1.405 29.482,1.385 L29.657,1.194 L29.63,1.16 L29.579,1.101 C29.503,1.016 29.427,0.928 29.366,0.836 C29.285,0.709 29.322,0.578 29.482,0.436 C29.503,0.417 29.527,0.397 29.554,0.376 C29.596,0.345 29.634,0.314 29.667,0.284 L29.981,0 Z"></path></clipPath><clipPath id="i2"><path d="M61,0 L61,56.9994889 L0,56.9994889 L0,0 L61,0 Z"></path></clipPath><clipPath id="i3"><path d="M3.58462558,0 L3.58462558,0.899250144 L1.06012517,0.899250144 L1.06012517,2.54925041 L3.30000054,2.54925041 L3.30000054,3.44850056 L1.06012517,3.44850056 L1.06012517,5.16450084 L3.59287558,5.16450084 L3.59287558,6.06375099 L0,6.06375099 L0,0 L3.58462558,0 Z"></path></clipPath><clipPath id="i4"><path d="M1.36537522,0 L3.39900055,4.70662577 L3.41137555,4.70662577 L3.36187555,3.12675051 L3.36187555,0 L4.36012571,0 L4.36012571,6.06375099 L2.99475049,6.06375099 L0.96112515,1.36537522 L0.99825016,2.94112548 L0.99825016,6.06375099 L0,6.06375099 L0,0 L1.36537522,0 Z"></path></clipPath><clipPath id="i5"><path d="M1.0601252,0 L1.0601252,2.54512541 L3.2216255,2.54512541 L3.2216255,0 L4.2776257,0 L4.2776257,6.06375099 L3.2216255,6.06375099 L3.2216255,3.45675056 L1.0601252,3.45675056 L1.0601252,6.06375099 L0,6.06375099 L0,0 L1.0601252,0 Z"></path></clipPath><clipPath id="i6"><path d="M3.2133755,0 L5.1108759,6.06375099 L4.0095007,6.06375099 L3.5268756,4.43437572 L1.5468753,4.43437572 L1.0683752,6.06375099 L0,6.06375099 L1.8975003,0 L3.2133755,0 Z M2.5368754,1.04362517 L1.7943753,3.55575058 L3.2793756,3.55575058 L2.5368754,1.04362517 Z"></path></clipPath><clipPath id="i7"><path d="M1.0601252,0 L1.0601252,3.96412565 C1.0601252,4.87162579 1.3983752,5.29237586 2.1367503,5.29237586 C2.8792505,5.29237586 3.2175005,4.87162579 3.2175005,3.96412565 L3.2175005,0 L4.2735007,0 L4.2735007,3.98475065 C4.2735007,5.5316259 3.5557506,6.18750101 2.1367503,6.18750101 C0.7177501,6.18750101 0,5.5316259 0,3.98475065 L0,0 L1.0601252,0 Z"></path></clipPath><clipPath id="i8"><path d="M4.4178757,0 L4.4178757,0.899250144 L2.7390005,0.899250144 L2.7390005,6.06375099 L1.6830003,6.06375099 L1.6830003,0.899250144 L0,0.899250144 L0,0 L4.4178757,0 Z"></path></clipPath></defs><g transform="translate(44.0156 8.637699999999995)"><g clip-path="url(#i0)"><polygon points="0.457,0.4635 0.543,0.4635 0.543,0.5365 0.457,0.5365 0.457,0.4635" stroke="none" fill="#FFFFFF"></polygon></g></g><g transform="translate(14.499500000000012 9.437600000000003)"><g clip-path="url(#i1)"><g clip-path="url(#i2)"><polygon points="0,0 61,0 61,56.9994889 0,56.9994889 0,0" stroke="none" fill="#FFFFFF"></polygon></g></g></g><g transform="translate(30.093100094999947 72.43645665993083)"><g transform=""><g clip-path="url(#i3)"><polygon points="0,0 3.59287558,0 3.59287558,6.06375099 0,6.06375099 0,0" stroke="none" fill="#FFFFFF"></polygon></g></g><g transform="translate(4.721625004999997 4.440892098500626e-16)"><g clip-path="url(#i4)"><polygon points="0,0 4.36012571,0 4.36012571,6.06375099 0,6.06375099 0,0" stroke="none" fill="#FFFFFF"></polygon></g></g><g transform="translate(12.131250004999997 4.440892098500626e-16)"><g clip-path="url(#i5)"><polygon points="0,0 4.2776257,0 4.2776257,6.06375099 0,6.06375099 0,0" stroke="none" fill="#FFFFFF"></polygon></g></g><g transform="translate(17.244749904999995 4.440892098500626e-16)"><g clip-path="url(#i6)"><polygon points="0,0 5.1108759,0 5.1108759,6.06375099 0,6.06375099 0,0" stroke="none" fill="#FFFFFF"></polygon></g></g><g transform="translate(22.923375004999993 4.440892098500626e-16)"><g clip-path="url(#i7)"><polygon points="0,0 4.2735007,0 4.2735007,6.18750101 0,6.18750101 0,0" stroke="none" fill="#FFFFFF"></polygon></g></g><g transform="translate(28.020374904999994 4.440892098500626e-16)"><g clip-path="url(#i8)"><polygon points="0,0 4.4178757,0 4.4178757,6.06375099 0,6.06375099 0,0" stroke="none" fill="#FFFFFF"></polygon></g></g></g></svg>