<?xml version="1.0" encoding="UTF-8"?><svg version="1.1" width="91px" height="91px" viewBox="0 0 91.0 91.0" xmlns="http://www.w3.org/2000/svg" xmlns:xlink="http://www.w3.org/1999/xlink"><defs><clipPath id="i0"><path d=""></path></clipPath><clipPath id="i1"><path d="M29.99,-3.55271368e-15 L30.03,0.03 L30.17,0.14 C30.2,0.09 30.27,0.01 30.27,0.01 L30.51,0.27 L30.75,0.01 C30.88,0.18 31.04,0.38 31.1,0.61 C31.12,0.66 31.13,0.71 31.14,0.76 C31.17,0.86 31.2,0.96 31.24,1.06 L31.53,1.38 C31.56,1.4 31.59,1.42 31.63,1.44 C31.67,1.46 31.7,1.54 31.7,1.54 L31.7,1.56 C31.71,1.58 31.72,1.61 31.72,1.64 C31.75,1.78 31.78,1.96 32.19,1.96 L32.28,1.96 C32.3,1.98 32.32,2.01 32.32,2.03 C32.35,2.1 32.38,2.16 32.41,2.22 C32.49,2.38 32.57,2.55 32.6,2.73 C32.62,2.91 32.6,3.11 32.58,3.32 L32.67,3.32 C32.64,3.27 32.64,3.24 32.64,3.21 L32.65375,3.20375 L32.66,3.19 C32.75,3.08 32.86,3 32.88,3 C32.99,3.04 33.14,3.11 33.21,3.28 C33.27,3.43 33.35,3.53 33.44,3.61 C33.64,3.55 33.82,3.52 34.02,3.52 L34.25,3.52 L34.33,3.8 C34.33,3.8 34.43,4.12 34.43,4.12 L34.43,4.16 L34.83,4.16 C35.02,4.03 35.12,4.02 35.15,4.18 C35.33,4.21 35.32,4.3 35.17,4.47 L35.17,4.84 L35.21,4.84 L35.56,4.92 L35.86,4.99 L35.86,5.2 C35.86,5.38 35.82,5.55 35.76,5.73 C35.84,5.81 35.96,5.89 36.12,5.94 C36.3,6.01 36.38,6.14 36.42,6.24 C36.42,6.26 36.33,6.36 36.21,6.44 C36.19,6.45 36.18,6.45 36.18,6.45 L36.1466667,6.44925926 C36.1222222,6.44777778 36.0933333,6.44333333 36.06,6.43 C36,6.41 35.93,6.4 35.87,6.4 L35.79,6.4 C35.75,6.38 35.67,6.38 35.67,6.38 L35.67,6.54 L35.74,6.54 C35.85,6.54 35.96,6.52 36.07,6.52 C36.3,6.51 36.52,6.49 36.72,6.51 C36.92,6.53 37.11,6.61 37.29,6.68 C37.36,6.71 37.43,6.74 37.5,6.76 C37.51,6.77 37.55,6.79 37.57,6.8 L37.57,6.88 C37.57,7.25 37.76,7.28 37.92,7.31 C37.95,7.31 38.01,7.33 38.01,7.33 L38.04,7.33 C38.09,7.34 38.13,7.35 38.15,7.38 C38.32,7.71 38.61,7.76 38.9,7.82 L39.07,7.85 C39.32,7.91 39.54,8.04 39.73,8.17 C39.81,8.23 39.87,8.35 39.87,8.47 C39.9,8.88 40.12,8.91 40.28,8.9 C40.35,8.89 40.42,8.87 40.49,8.85 C40.55,8.83 40.6,8.81 40.65,8.81 C41.14,8.75 41.43,9.04 41.55,9.7 C41.58,9.88 41.66,10.01 41.73,10.13 C41.76,10.17 41.78,10.22 41.81,10.27 C41.83,10.31 41.86,10.32 41.88,10.33 C41.89,10.34 41.9,10.34 41.9,10.34 C41.95,10.39 42.01,10.45 42.06,10.5 C42.33,10.78 42.62,11.07 43.09,11 C43.23,10.98 43.35,11.19 43.41,11.41 C43.48,11.64 43.58,11.72 43.73,11.76 C44.05,11.86 44.2,12.17 44.2,12.67 L44.2,12.84 C44.19,13.19 44.3,13.38 44.51,13.41 L44.5758796,13.426713 C44.6788889,13.4658333 44.7483333,13.5616667 44.79,13.72 C44.83,13.88 44.94,13.95 45.06,14.02 C45.37,14.19 45.61,14.35 45.79,14.66 C45.98,14.99 46.24,15.39 46.59,15.6 C46.91,15.79 47.16,15.97 47.25,16.48 C47.29,16.66 47.43,16.76 47.69,16.77 C47.9,16.78 47.98,16.88 47.98,17.14 C47.98,17.27 48.03,17.38 48.13,17.47 C48.21,17.54 48.31,17.58 48.44,17.61 C48.47,17.73 48.52,17.82 48.59,17.89 C48.68,17.98 48.8,18.03 48.95,18.03 C49.24,18.03 49.36,18.1 49.36,18.3 C49.37,18.53 49.48,18.66 49.68,18.69 C50.25,18.77 50.45,19 50.66,19.29 C50.89,19.6 51.33,19.84 51.7,20.01 C52.04,20.17 52.21,20.39 52.4,20.67 C52.47,20.77 52.55,20.87 52.73,20.91 C52.94,20.95 53.05,21.03 53.07,21.16 C53.1,21.35 53.31,21.44 53.7,21.44 L53.89,21.44 C54.45,21.44 54.78,21.58 54.89,21.87 C54.94,22.01 55.02,22.1 55.27,22.16 C55.51,22.21 55.74,22.32 55.72,22.45 C55.64,22.88 55.96,23.13 56.27,23.38 L56.45,23.53 C56.46,23.54 56.46,23.55 56.46,23.55 C56.48,23.57 56.49,23.59 56.53,23.61 C56.59,23.63 56.64,23.65 56.69,23.68 C56.82,23.75 56.96,23.82 57.16,23.85 C57.89,23.96 58.21,24.22 58.14,24.66 C58.14,24.7 58.12,24.75 58.1,24.8 C58.08,24.86 58.05,24.93 58.05,24.99 C58.04,25.14 58.07,25.34 58.53,25.36 C58.67,25.37 58.8,25.42 58.86,25.49 C58.99,25.66 59.15,25.87 59.21,26.09 C59.23,26.14 59.24,26.19 59.25,26.24 C59.31,26.5 59.37,26.76 59.74,26.92 C59.77,26.94 59.8,27.02 59.8,27.02 L59.8,27.04 C59.81,27.06 59.82,27.09 59.82,27.12 C59.85,27.26 59.88,27.44 60.29,27.44 L60.38,27.44 C60.4,27.46 60.42,27.49 60.42,27.51 C60.45,27.58 60.48,27.64 60.51,27.7 C60.59,27.86 60.67,28.03 60.7,28.21 C60.73,28.39 60.71,28.59 60.69,28.8 C60.68,28.9 60.66,29 60.66,29.1 L60.66,29.15 L61.02,29.15 L60.73,29.49 C60.72,29.34 60.65,29.16 60.21,29.16 L59.96,29.16 C59.74,29.16 59.61,29.09 59.57,28.95 C59.54,28.85 59.52,28.74 59.5,28.63 L59.5,28.56 C59.45,28.22 59.31,27.9 58.56,27.88 C58.35,27.87 58.28,27.81 58.35,27.69 C58.53,27.37 58.4,27.18 57.92,27.1 C57.84,27.09 57.77,27.05 57.73,27.01 L57.59,26.87 C57.38,26.67 57.18,26.48 57.22,26.19 C57.24,26.09 57.18,26 57.04,25.91 C56.97,25.87 56.9,25.84 56.82,25.81 C56.72,25.78 56.63,25.74 56.59,25.69 C56.54,25.63 56.56,25.54 56.56,25.44 L56.56,25.24 L55.86,25.24 C55.54,25.24 55.36,25.15 55.36,24.96 C55.36,24.64 55.09,24.47 54.68,24.32 C54.39,24.22 54.22,24.11 54.26,23.91 C54.3,23.71 54.11,23.6 53.72,23.6 C53.59,23.59 53.52,23.57 53.51,23.57 C53.5,23.45 53.38,23.37 53.26,23.3 C53.06,23.18 52.96,23.09 53.14,22.89 C53.21,22.81 53.1,22.74 53.1,22.74 L53.08,22.74 L52.96,22.66 C52.86,22.6 52.76,22.53 52.63,22.48 C52.38,22.38 52.13,22.27 52.07,22.04 C52.03,21.88 51.85,21.75 51.6,21.69 C51.26,21.61 51.09,21.45 50.98,21.31 C50.83,21.12 50.67,20.98 50.49,20.87 L50.16,20.68 C49.4,20.24 48.62,19.78 48.1,19.21 C48.01,19.1 47.85,19.05 47.59,19.05 C47.24,19.05 47.11,18.96 47.08,18.83 C46.93,18.8 46.83,18.68 46.83,18.37 C46.83,18.14 46.78,18 46.66,17.91 C46.02,17.45 45.52,16.74 45.03,16.05 L44.82,15.75 C44.7,15.59 44.54,15.45 44.33,15.31 C44.17,15.21 44,15.06 43.91,14.75 C43.84,14.53 43.69,14.37 43.52,14.33 C43.27,14.27 43.14,14.05 43.04,13.82 C42.99,13.7 42.91,13.61 42.84,13.52 C42.82,13.48 42.79,13.45 42.76,13.4 L42.75,13.4 C42.73,13.36 42.68,13.3 42.6,13.36 C42.38,13.52 42.29,13.42 42.15,13.25 C42.07,13.14 41.98,13.02 41.85,13.02 C41.84,13.01 41.82,12.95 41.82,12.83 C41.82,12.47 41.7,12.3 41.48,12.34 C41.25,12.37 41.14,12.22 41.02,11.96 C40.85,11.59 40.67,11.34 40.32,11.34 C40.12,11.34 40.01,11.18 40.01,10.89 L40.01,10.26 L39.79,10.26 C39.68,10.27 39.58,10.27 39.51,10.23 C39.45,10.19 39.41,10.11 39.37,10.02 C39.34,9.95 39.31,9.88 39.26,9.82 C39.15,9.69 39.06,9.64 38.95,9.65 C38.64,9.69 38.43,9.51 38.2,9.32 L38.05,9.2 C38,9.17 37.97,9.1 37.95,9.03 C37.86,8.6 37.65,8.47 37.3,8.64 C37.17,8.7 37.09,8.63 37.09,8.45 C37.06,7.77 36.71,7.64 36.34,7.59 L36.26,7.59 C36.14,7.58 36.02,7.57 35.9,7.54 C35.74,7.5 35.67,7.38 35.67,7.18 L35.67,6.95 C35.67,6.55 35.47,6.49 35.3,6.48 C35.1,6.47 34.96,6.35 34.86,6.18 C34.56,6.07 34.37,5.91 34.37,5.64 C34.37,5.58 34.34,5.54 34.32,5.5 C34.31,5.49 34.3,5.47 34.3,5.46 L34.24,5.31 C34.21,5.23 34.16,5.16 34.12,5.08 C34.04,5.04 33.96,5 33.87,4.97 C33.81,4.96 33.75,4.94 33.7,4.92 C33.68,4.91 33.67,4.9 33.65,4.9 C33.61,4.88 33.56,4.86 33.5,4.86 C33.21,4.87 33.03,4.68 32.91,4.42 C32.72,4.33 32.6,4.2 32.58,4.02 C32.57,3.87 32.5,3.69 32.06,3.69 L31.81,3.69 C31.67,3.69 31.58,3.66 31.51,3.61 L31.53,3.74 C31.54,3.83 31.49,3.95 31.4,4.04 C31.1,4.35 31.23,4.51 31.35,4.61 C31.4,4.65 31.47,4.68 31.53,4.71 C31.58,4.73 31.63,4.75 31.67,4.78 C32.06,5.04 32.04,5.44 31.61,5.98 C31.49,6.13 31.44,6.27 31.4,6.4 C31.39,6.45 31.37,6.5 31.35,6.55 C31.33,6.59 31.35,6.62 31.35,6.64 L31.35,6.66 C31.34,6.74 31.34,6.81 31.34,6.88 C31.32,7.25 31.29,7.63 31.68,7.89 C31.79,7.96 31.72,8.19 31.59,8.38 C31.45,8.58 31.47,8.71 31.54,8.83 C31.69,9.1 31.57,9.42 31.17,9.77 C31.14,9.8 31.12,9.82 31.09,9.84 L31.03,9.89 C30.75,10.14 30.67,10.34 30.8,10.5 C30.88,10.61 30.87,10.73 30.75,10.9 C30.66,11.04 30.68,11.16 30.71,11.28 C30.79,11.6 30.85,11.87 30.73,12.2 C30.6,12.56 30.47,13.01 30.56,13.38 C30.64,13.72 30.67,14.02 30.34,14.43 C30.22,14.57 30.25,14.74 30.42,14.91 C30.57,15.06 30.55,15.18 30.34,15.36 C30.24,15.45 30.19,15.56 30.19,15.69 C30.19,15.78 30.23,15.87 30.3,15.98 C30.23,16.08 30.19,16.18 30.19,16.27 C30.19,16.4 30.24,16.51 30.34,16.6 C30.54,16.79 30.57,16.91 30.42,17.05 C30.25,17.23 30.22,17.39 30.34,17.54 C30.67,17.96 30.64,18.25 30.56,18.59 C30.47,18.96 30.61,19.42 30.73,19.77 C30.85,20.11 30.79,20.37 30.71,20.69 C30.68,20.81 30.65,20.93 30.75,21.07 C30.87,21.24 30.88,21.37 30.8,21.47 C30.68,21.63 30.75,21.83 31.03,22.08 L31.09,22.13 C31.12,22.16 31.15,22.18 31.17,22.2 C31.56,22.55 31.69,22.87 31.54,23.14 C31.47,23.27 31.46,23.39 31.59,23.59 C31.72,23.78 31.79,24 31.68,24.08 C31.29,24.33 31.32,24.72 31.34,25.09 C31.35,25.17 31.35,25.24 31.35,25.31 L31.35,25.33 C31.35,25.36 31.33,25.38 31.35,25.42 L31.4,25.57 C31.45,25.7 31.49,25.84 31.61,25.99 C32.04,26.53 32.06,26.92 31.67,27.19 C31.63,27.21 31.58,27.24 31.53,27.26 C31.47,27.29 31.4,27.32 31.35,27.36 C31.22,27.46 31.09,27.62 31.4,27.93 C31.49,28.02 31.54,28.14 31.53,28.23 C31.49,28.44 31.44,28.68 31.31,28.88 L31.22,29.01 C31.07,29.24 30.9,29.47 31.04,29.81 C31.05,29.85 30.99,29.92 30.99,29.92 L30.99,29.94 C30.98,29.96 30.96,29.99 30.94,30.01 C30.85,30.13 30.74,30.28 31.03,30.54 C31.05,30.55 31.07,30.57 31.09,30.59 L31.07,30.66 C31.04,30.73 31.02,30.79 30.99,30.85 C30.92,31.01 30.84,31.19 30.72,31.33 C30.6,31.48 30.43,31.6 30.25,31.74 L30.31,31.8 C30.33,31.76 30.35,31.73 30.37,31.71 L30.4,31.71 C30.56,31.69 30.69,31.69 30.71,31.71 C30.76,31.8 30.81,31.95 30.73,32.11 C30.66,32.25 30.64,32.37 30.64,32.49 C30.83,32.58 30.98,32.67 31.12,32.8 C31.18,32.85 31.28,32.95 31.28,32.95 L31.12,33.19 L30.93,33.48 L30.91,33.52 L30.97,33.57 L31.05,33.64 L31.18,33.77 C31.19,33.78 31.19,33.78 31.19,33.78 C31.43,33.81 31.5,33.86 31.4,34 C31.5,34.13 31.43,34.18 31.19,34.21 L31.05,34.35 L30.97,34.42 L30.91,34.47 L30.93,34.51 L31.12,34.8 L31.28,35.04 C31.23,35.09 31.18,35.14 31.12,35.19 C30.98,35.32 30.83,35.41 30.64,35.5 C30.63,35.61 30.66,35.74 30.73,35.88 C30.81,36.04 30.76,36.18 30.71,36.28 C30.69,36.29 30.55,36.3 30.4,36.28 L30.37,36.28 L30.35,36.2588889 C30.3366667,36.2433333 30.3233333,36.2233333 30.31,36.19 C30.29,36.14 30.24,36.09 30.2,36.05 C30.18,36.03 30.16,36.01 30.15,35.99 L30.09,35.9 L30.0681481,35.9148148 C30.0533333,35.9266667 30.04,35.94 30.04,35.94 L29.95,36.01 L30,36.05 C30.08,36.11 30.17,36.18 30.25,36.24 C30.43,36.38 30.6,36.5 30.72,36.65 C30.84,36.79 30.92,36.96 30.99,37.13 C31.01,37.2 31.04,37.26 31.07,37.32 C31.07,37.33 31.09,37.37 31.09,37.39 C31.07,37.4 31.05,37.42 31.03,37.44 C30.74,37.7 30.85,37.85 30.94,37.97 C30.95,37.99 31,38.04 31,38.04 L31,38.06 C31.03,38.1 31.05,38.14 31.04,38.17 C30.9,38.52 31.06,38.75 31.22,38.97 C31.25,39.01 31.28,39.06 31.31,39.1 C31.44,39.3 31.5,39.54 31.53,39.75 C31.54,39.84 31.49,39.96 31.4,40.05 C31.1,40.36 31.23,40.52 31.35,40.62 C31.4,40.66 31.47,40.69 31.53,40.72 C31.58,40.74 31.63,40.76 31.67,40.79 C32.06,41.05 32.04,41.45 31.61,41.99 C31.49,42.14 31.44,42.28 31.4,42.41 C31.39,42.46 31.37,42.51 31.35,42.56 C31.33,42.6 31.35,42.63 31.35,42.65 L31.35,42.67 C31.34,42.75 31.34,42.82 31.34,42.89 C31.32,43.26 31.29,43.64 31.68,43.9 C31.79,43.97 31.72,44.2 31.59,44.39 C31.45,44.59 31.47,44.72 31.54,44.84 C31.69,45.11 31.57,45.43 31.17,45.78 C31.14,45.81 31.12,45.83 31.09,45.85 L31.03,45.9 C30.75,46.15 30.67,46.35 30.8,46.51 C30.88,46.62 30.87,46.74 30.75,46.91 C30.66,47.05 30.68,47.17 30.71,47.29 C30.79,47.61 30.85,47.88 30.73,48.21 C30.6,48.57 30.47,49.02 30.56,49.39 C30.64,49.73 30.67,50.03 30.34,50.44 C30.22,50.58 30.25,50.75 30.42,50.92 C30.57,51.07 30.55,51.19 30.34,51.37 C30.24,51.46 30.19,51.57 30.19,51.7 C30.19,51.79 30.23,51.88 30.3,51.99 C30.23,52.09 30.19,52.19 30.19,52.28 C30.19,52.41 30.24,52.52 30.34,52.61 C30.54,52.8 30.57,52.92 30.42,53.06 C30.25,53.23 30.22,53.39 30.34,53.54 C30.67,53.96 30.64,54.25 30.56,54.59 C30.47,54.96 30.61,55.42 30.73,55.77 C30.73,55.77 30.95,56.8 30.45,56.99 L30.57,57.14 C30.07,57.33 29.35,57.02 29.35,56.39 C29.35,56.15 29.39,55.95 29.35,55.76 C29.33,55.64 29.3,55.53 29.27,55.41 C29.07,54.61 28.88,53.78 28.96,53.05 C28.97,52.91 28.9,52.78 28.72,52.61 L28.6396484,52.5307227 C28.4742187,52.353125 28.46,52.22625 28.53,52.13 C28.45,52.02 28.48,51.88 28.72,51.65 C28.9,51.48 28.98,51.35 28.96,51.21 C28.88,50.47 29.08,49.65 29.27,48.85 C29.29,48.73 29.32,48.62 29.35,48.5 C29.39,48.3 29.39,48.1 29.35,47.87 C29.32,47.69 29.31,47.48 29.49,47.2 C29.62,47 29.64,46.79 29.55,46.65 C29.42,46.45 29.5,46.21 29.61,45.98 C29.67,45.86 29.68,45.75 29.7,45.64 C29.71,45.6 29.73,45.51 29.73,45.51 L29.73,45.49 C29.74,45.44 29.76,45.36 29.65,45.36 C29.36,45.33 29.37,45.2 29.41,44.99 C29.43,44.86 29.46,44.73 29.37,44.64 C29.37,44.63 29.41,44.58 29.5,44.49 C29.78,44.23 29.83,44.04 29.64,43.92 C29.46,43.8 29.49,43.62 29.61,43.36 C29.78,42.99 29.85,42.69 29.6,42.47 C29.45,42.34 29.5,42.16 29.73,41.95 C29.76,41.93 29.79,41.9 29.83,41.87 C29.88,41.83 29.93,41.8 29.98,41.75 L30.08,41.66 C30.1,41.63 30.16,41.58 30.16,41.58 L30.23,41.52 L30.19,41.48 C30.16,41.45 30.11,41.41 30.07,41.38 C29.98,41.31 29.91,41.25 29.89,41.18 C29.87,41.12 29.91,41.04 29.95,40.95 C29.98,40.88 30.01,40.81 30.02,40.74 C30.04,40.59 30.02,40.49 29.93,40.43 C29.68,40.25 29.67,39.99 29.66,39.71 C29.65,39.65 29.65,39.59 29.65,39.53 C29.64,39.47 29.66,39.4 29.71,39.34 C29.98,38.98 29.93,38.76 29.55,38.65 C29.41,38.61 29.41,38.51 29.55,38.38 C30.07,37.88 29.92,37.57 29.69,37.3 L29.64,37.24 C29.57,37.15 29.49,37.06 29.43,36.97 C29.35,36.84 29.39,36.71 29.55,36.57 C29.57,36.55 29.59,36.53 29.62,36.51 C29.66,36.48 29.7,36.45 29.73,36.42 C30.04,36.14 29.95,35.97 29.84,35.85 C29.7,35.71 29.7,35.55 29.76,35.36 C29.65,35.09 29.63,34.85 29.84,34.67 C29.89,34.63 29.9,34.58 29.92,34.54 C29.93,34.53 29.94,34.51 29.94,34.5 C29.96,34.45 29.98,34.4 30.01,34.35 C30.05,34.27 30.07,34.19 30.1,34.11 C30.07,34.03 30.05,33.94 30.01,33.87 L29.94,33.72 C29.93,33.71 29.92,33.69 29.92,33.68 C29.9,33.63 29.88,33.59 29.84,33.55 C29.62,33.37 29.64,33.13 29.76,32.86 C29.7,32.68 29.71,32.51 29.84,32.37 C29.95,32.25 30.04,32.08 29.73,31.8 C29.7,31.77 29.66,31.74 29.62,31.71 L29.55,31.65 C29.39,31.51 29.35,31.38 29.43,31.25 C29.49,31.15 29.56,31.07 29.64,30.98 L29.69,30.92 C29.92,30.65 30.06,30.34 29.55,29.84 C29.41,29.7 29.41,29.61 29.55,29.57 C29.93,29.46 29.98,29.24 29.71,28.88 C29.67,28.82 29.65,28.75 29.65,28.69 C29.66,28.63 29.66,28.57 29.66,28.51 C29.67,28.23 29.68,27.97 29.93,27.79 C30.02,27.73 30.05,27.63 30.02,27.48 C30.01,27.41 29.98,27.34 29.95,27.27 C29.92,27.19 29.88,27.1 29.89,27.04 C29.91,26.96 29.99,26.9 30.07,26.84 C30.11,26.81 30.19,26.74 30.19,26.74 L30.23,26.7 L30.16,26.64 C30.14,26.61 30.11,26.59 30.08,26.56 C30.05,26.52 30.01,26.49 29.98,26.46 C29.92,26.41 29.88,26.38 29.83,26.34 C29.79,26.31 29.76,26.29 29.73,26.26 C29.5,26.06 29.45,25.87 29.6,25.74 C29.84,25.51 29.78,25.22 29.61,24.85 C29.49,24.59 29.46,24.41 29.64,24.29 C29.82,24.17 29.77,23.97 29.5,23.72 C29.41,23.64 29.37,23.58 29.37,23.57 C29.46,23.48 29.43,23.35 29.41,23.22 C29.37,23.01 29.36,22.87 29.65,22.85 C29.75,22.84 29.72,22.72 29.72,22.72 L29.72,22.7 C29.71,22.66 29.7,22.61 29.7,22.57 C29.68,22.46 29.67,22.35 29.61,22.23 C29.5,22 29.42,21.76 29.55,21.56 C29.64,21.42 29.62,21.21 29.49,21.01 C29.31,20.73 29.32,20.51 29.35,20.34 C29.4,20.1 29.39,19.9 29.35,19.71 C29.33,19.59 29.3,19.48 29.27,19.36 C29.07,18.56 28.88,17.73 28.96,17 C28.97,16.86 28.9,16.73 28.72,16.56 L28.6396484,16.4807227 C28.4742187,16.303125 28.46,16.17625 28.53,16.08 C28.45,15.97 28.48,15.82 28.72,15.6 C28.9,15.43 28.98,15.3 28.96,15.16 C28.88,14.42 29.08,13.6 29.27,12.8 C29.29,12.68 29.32,12.57 29.35,12.45 C29.39,12.25 29.39,12.05 29.35,11.82 C29.32,11.64 29.31,11.43 29.49,11.15 C29.62,10.95 29.64,10.74 29.55,10.6 C29.42,10.4 29.5,10.16 29.61,9.93 C29.67,9.81 29.68,9.7 29.7,9.59 C29.71,9.55 29.73,9.46 29.73,9.46 L29.73,9.44 C29.74,9.39 29.76,9.31 29.65,9.31 C29.36,9.28 29.37,9.15 29.41,8.94 C29.43,8.81 29.46,8.68 29.37,8.59 C29.37,8.58 29.41,8.53 29.5,8.44 C29.78,8.18 29.83,7.99 29.64,7.87 C29.46,7.75 29.49,7.57 29.61,7.31 C29.78,6.94 29.85,6.64 29.6,6.42 C29.45,6.29 29.5,6.11 29.73,5.9 C29.76,5.88 29.79,5.85 29.83,5.82 C29.88,5.78 29.93,5.75 29.98,5.7 C30.01,5.66 30.05,5.63 30.08,5.6 C30.1,5.57 30.16,5.52 30.16,5.52 L30.23,5.46 L30.19,5.42 C30.16,5.39 30.11,5.35 30.07,5.32 C29.98,5.25 29.91,5.19 29.89,5.12 C29.87,5.06 29.91,4.98 29.95,4.89 C29.98,4.82 30.01,4.75 30.02,4.68 C30.04,4.53 30.02,4.43 29.93,4.37 C29.68,4.19 29.67,3.93 29.66,3.65 C29.65,3.59 29.65,3.53 29.65,3.47 C29.64,3.41 29.66,3.34 29.71,3.28 C29.88,3.06 29.93,2.88 29.84,2.76 C29.74,2.87 29.7,3.01 29.67,3.16 L29.67,3.23 C29.65,3.33 29.64,3.45 29.61,3.55 C29.57,3.69 29.44,3.76 29.22,3.76 L28.97,3.76 C28.53,3.75 28.46,3.93 28.45,4.09 C28.43,4.28 28.31,4.4 28.12,4.49 C28,4.75 27.82,4.93 27.53,4.93 C27.47,4.93 27.43,4.95 27.38,4.97 C27.36,4.98 27.35,4.99 27.33,4.99 L27.16,5.04 C27.07,5.07 26.99,5.11 26.91,5.15 C26.87,5.23 26.82,5.3 26.79,5.38 L26.73,5.53 C26.72,5.54 26.71,5.56 26.71,5.57 C26.68,5.61 26.66,5.66 26.66,5.71 C26.66,5.98 26.46,6.14 26.17,6.25 C26.07,6.42 25.93,6.54 25.73,6.55 C25.56,6.56 25.36,6.62 25.36,7.02 L25.36,7.25 C25.36,7.46 25.29,7.57 25.13,7.61 C25.01,7.64 24.89,7.65 24.77,7.67 L24.69,7.67 C24.31,7.71 23.97,7.84 23.94,8.52 C23.93,8.71 23.86,8.77 23.73,8.71 C23.38,8.55 23.17,8.67 23.08,9.1 C23.07,9.17 23.03,9.23 22.98,9.27 L22.83,9.39 C22.61,9.58 22.4,9.76 22.08,9.72 C21.97,9.71 21.87,9.76 21.77,9.89 C21.73,9.95 21.69,10.02 21.66,10.09 C21.62,10.18 21.58,10.26 21.52,10.3 C21.45,10.35 21.35,10.33 21.24,10.33 L21.02,10.33 L21.02,10.95 C21.02,11.24 20.91,11.4 20.71,11.4 C20.36,11.4 20.18,11.65 20.01,12.02 C19.89,12.28 19.77,12.43 19.55,12.4 C19.33,12.37 19.21,12.54 19.21,12.89 C19.21,13.01 19.19,13.08 19.18,13.08 C19.05,13.09 18.96,13.2 18.88,13.31 C18.75,13.49 18.65,13.59 18.43,13.42 C18.35,13.35 18.31,13.41 18.28,13.47 L18.27,13.47 C18.25,13.5 18.22,13.54 18.19,13.57 C18.12,13.66 18.04,13.75 17.99,13.87 C17.89,14.1 17.76,14.33 17.51,14.38 C17.33,14.41 17.18,14.58 17.12,14.8 C17.03,15.11 16.86,15.26 16.7,15.36 C16.48,15.49 16.33,15.63 16.21,15.8 L16,16.1 C15.51,16.78 15,17.49 14.37,17.96 C14.26,18.04 14.2,18.19 14.2,18.42 C14.19,18.73 14.09,18.85 13.95,18.88 C13.92,19.01 13.79,19.1 13.44,19.1 C13.18,19.11 13.03,19.15 12.93,19.26 C12.41,19.83 11.63,20.29 10.87,20.73 L10.54,20.92 C10.36,21.03 10.2,21.17 10.05,21.36 C9.94,21.5 9.77,21.66 9.43,21.74 C9.18,21.8 9,21.93 8.96,22.09 C8.9,22.32 8.66,22.44 8.4,22.53 C8.26,22.58 8.17,22.64 8.07,22.71 C8.03,22.74 7.95,22.8 7.95,22.8 L7.93,22.8 C7.89,22.83 7.82,22.86 7.89,22.94 C8.07,23.14 7.96,23.23 7.77,23.35 C7.65,23.42 7.53,23.5 7.52,23.62 C7.51,23.63 7.44,23.65 7.31,23.65 C6.92,23.65 6.73,23.76 6.77,23.96 C6.8,24.16 6.64,24.26 6.35,24.37 C5.94,24.53 5.67,24.69 5.67,25.01 C5.67,25.19 5.49,25.29 5.17,25.29 L4.46,25.29 L4.46,25.49 C4.47,25.59 4.48,25.68 4.43,25.74 C4.39,25.79 4.3,25.82 4.2,25.86 C4.12,25.89 4.04,25.92 3.98,25.96 C3.85,26.06 3.79,26.14 3.8,26.24 C3.84,26.52 3.64,26.72 3.43,26.92 C3.38,26.97 3.33,27.01 3.29,27.06 C3.25,27.1 3.18,27.14 3.1,27.15 C2.62,27.23 2.49,27.42 2.67,27.74 C2.74,27.86 2.66,27.93 2.46,27.93 C1.71,27.96 1.56,28.27 1.51,28.61 L1.51,28.68 C1.49,28.78 1.48,28.9 1.45,29 C1.41,29.14 1.28,29.21 1.06,29.21 L0.81,29.21 C0.37,29.2 0.3,29.38 0.29,29.54 L0,29.2 L0.36,29.2 L0.36,29.14 L0.33,28.84 C0.32,28.63 0.29,28.43 0.32,28.25 C0.35,28.07 0.43,27.9 0.51,27.74 C0.54,27.67 0.57,27.61 0.6,27.55 C0.61,27.53 0.62,27.49 0.64,27.48 L0.73,27.48 C1.13,27.48 1.17,27.3 1.2,27.16 C1.21,27.13 1.23,27.08 1.23,27.08 L1.23,27.06 C1.24,27.02 1.26,26.97 1.29,26.96 C1.66,26.8 1.72,26.54 1.78,26.28 L1.82,26.13 C1.88,25.9 2.03,25.7 2.17,25.53 C2.23,25.46 2.36,25.4 2.5,25.4 C2.96,25.38 2.99,25.18 2.98,25.03 C2.98,24.97 2.95,24.9 2.93,24.84 C2.91,24.79 2.89,24.74 2.89,24.7 C2.82,24.26 3.14,24 3.87,23.89 C4.07,23.86 4.21,23.79 4.34,23.72 C4.39,23.7 4.45,23.67 4.5,23.65 C4.54,23.63 4.56,23.61 4.57,23.59 C4.58,23.58 4.58,23.57 4.58,23.57 L4.76,23.42 C5.07,23.18 5.38,22.92 5.31,22.49 C5.29,22.36 5.52,22.25 5.76,22.2 C6.01,22.14 6.09,22.04 6.14,21.91 C6.25,21.62 6.58,21.48 7.14,21.48 L7.33,21.48 C7.71,21.49 7.93,21.39 7.96,21.2 C7.98,21.07 8.08,21 8.3,20.95 C8.48,20.92 8.56,20.82 8.63,20.71 C8.82,20.43 8.99,20.21 9.33,20.05 C9.7,19.88 10.14,19.65 10.37,19.33 C10.58,19.04 10.79,18.81 11.35,18.73 C11.55,18.71 11.66,18.57 11.67,18.34 C11.68,18.14 11.79,18.07 12.08,18.07 C12.22,18.07 12.34,18.02 12.44,17.93 C12.51,17.86 12.56,17.77 12.59,17.65 C12.73,17.62 12.82,17.57 12.9,17.51 C13,17.42 13.05,17.31 13.05,17.18 C13.05,16.92 13.12,16.81 13.34,16.81 C13.6,16.8 13.75,16.7 13.78,16.52 C13.86,16.02 14.12,15.83 14.44,15.64 C14.79,15.44 15.05,15.03 15.24,14.7 C15.42,14.39 15.67,14.23 15.97,14.06 C16.09,13.99 16.2,13.92 16.24,13.76 C16.29,13.57 16.38,13.47 16.52,13.45 C16.73,13.42 16.83,13.23 16.83,12.88 L16.83,12.71 C16.82,12.2 16.98,11.9 17.3,11.8 C17.45,11.75 17.56,11.68 17.62,11.45 C17.68,11.23 17.8,11.02 17.94,11.04 C18.41,11.11 18.7,10.82 18.97,10.54 C19.02,10.49 19.08,10.43 19.13,10.38 C19.14,10.37 19.15,10.37 19.15,10.37 C19.17,10.36 19.2,10.35 19.22,10.31 C19.24,10.26 19.27,10.22 19.3,10.17 C19.37,10.05 19.45,9.92 19.48,9.74 C19.6,9.08 19.9,8.79 20.38,8.85 C20.43,8.86 20.48,8.87 20.54,8.89 C20.61,8.91 20.68,8.94 20.75,8.94 C20.92,8.96 21.14,8.92 21.16,8.51 C21.17,8.38 21.22,8.26 21.3,8.21 C21.49,8.08 21.71,7.95 21.96,7.89 L22.13,7.86 C22.41,7.81 22.71,7.75 22.88,7.42 C22.9,7.39 22.99,7.36 22.99,7.36 L23.02,7.36 C23.05,7.34 23.08,7.34 23.11,7.34 C23.27,7.31 23.46,7.28 23.46,6.91 L23.46,6.83 C23.47,6.81 23.51,6.79 23.53,6.79 C23.6,6.76 23.67,6.74 23.74,6.71 C23.92,6.64 24.11,6.56 24.31,6.54 C24.51,6.51 24.73,6.53 24.96,6.55 C25.07,6.56 25.18,6.57 25.29,6.57 L25.35,6.57 L25.35,6.4 L25.23,6.42 L25.15,6.42 C25.08,6.42 25.01,6.43 24.96,6.45 C24.91,6.47 24.84,6.47 24.84,6.47 L24.81,6.46 C24.69,6.38 24.6,6.28 24.6,6.26 C24.64,6.16 24.72,6.02 24.9,5.96 C25.06,5.91 25.17,5.83 25.26,5.75 C25.19,5.56 25.16,5.4 25.16,5.22 L25.16,5.01 L25.46,4.94 L25.81,4.86 C25.81,4.86 25.85,4.85 25.85,4.85 L25.85,4.48 C25.7,4.3 25.69,4.22 25.87,4.19 C25.91,4.03 26,4.04 26.19,4.17 L26.6,4.17 L26.6,4.13 L26.69,3.81 L26.77,3.53 L27,3.53 C27.2,3.53 27.38,3.56 27.58,3.62 C27.67,3.54 27.75,3.44 27.81,3.29 C27.88,3.12 28.03,3.04 28.14,3.01 C28.17,3.01 28.27,3.09 28.36,3.2 C28.38,3.21 28.38,3.22 28.38,3.22 L28.3753125,3.2440625 L28.3546875,3.3071875 L28.35,3.32 L28.44,3.32 C28.42,3.11 28.39,2.91 28.42,2.73 C28.45,2.55 28.53,2.38 28.61,2.22 C28.64,2.15 28.67,2.09 28.7,2.03 C28.71,2.01 28.72,1.97 28.74,1.96 L28.83,1.96 C29.24,1.96 29.27,1.78 29.3,1.64 C29.31,1.61 29.33,1.56 29.33,1.56 L29.33,1.54 C29.34,1.5 29.35,1.45 29.39,1.44 C29.43,1.42 29.49,1.38 29.49,1.38 L29.67,1.19 L29.64,1.16 L29.59,1.1 C29.52,1.01 29.44,0.92 29.38,0.83 C29.3,0.7 29.34,0.57 29.5,0.43 L29.53125,0.4 L29.57,0.37 C29.61,0.34 29.68,0.28 29.68,0.28 L29.99,-3.55271368e-15 Z"></path></clipPath><clipPath id="i2"><path d="M4.28,0 L4.28,0.89 L2.66,0.89 L2.66,6.06 L1.61,6.06 L1.61,0.89 L0,0.89 L0,0 L4.28,0 Z"></path></clipPath><clipPath id="i3"><path d="M2.35,0 C3.96,0 4.7,0.91 4.7,2.87 L4.7,3.44 C4.7,5.4 3.96,6.31 2.35,6.31 C0.74,6.31 0,5.4 0,3.44 L0,2.87 C0,0.91 0.74,0 2.35,0 Z M2.35,0.87 C1.46,0.87 1.11,1.51 1.11,2.78 L1.11,3.53 C1.11,4.79 1.46,5.44 2.35,5.44 C3.24,5.44 3.59,4.79 3.59,3.53 L3.59,2.78 C3.59,1.52 3.24,0.87 2.35,0.87 Z"></path></clipPath><clipPath id="i4"><path d="M2.35,0 C3.96,0 4.7,0.91 4.7,2.87 L4.7,3.44 C4.7,5.4 3.96,6.31 2.35,6.31 C0.74,6.31 0,5.4 0,3.44 L0,2.87 C0,0.91 0.74,0 2.35,0 Z M2.35,0.87 C1.46,0.87 1.11,1.51 1.11,2.78 L1.11,3.53 C1.11,4.79 1.46,5.44 2.35,5.44 C3.24,5.44 3.59,4.79 3.59,3.53 L3.59,2.78 C3.59,1.52 3.24,0.87 2.35,0.87 Z"></path></clipPath><clipPath id="i5"><path d="M1.78,0 C3.21,0 3.93,0.58 3.93,1.83 L3.93,1.87 C3.93,3.12 3.21,3.71 1.79,3.71 L1.06,3.71 L1.06,6.06 L0.01,6.06 L0.01,0 L1.78,0 Z M1.74,0.86 L1.05,0.86 L1.05,2.85 L1.74,2.85 C2.47,2.85 2.82,2.58 2.82,1.88 L2.82,1.83 C2.82,1.13 2.47,0.86 1.74,0.86 Z"></path></clipPath></defs><g transform="translate(0.6599999999999966 0.8599999999999994)"><g transform="translate(44.015 8.635000000000002)"><g clip-path="url(#i0)"><polygon points="0.455,0.465 0.545,0.465 0.545,0.535 0.455,0.535 0.455,0.465" stroke="none" fill="#FFFFFF"></polygon></g></g><g transform="translate(45.215 11.545000000000002)"><g clip-path="url(#i0)"><polygon points="0.325,0.185 0.675,0.185 0.675,0.815 0.325,0.815 0.325,0.185" stroke="none" fill="#FFFFFF"></polygon></g></g><g transform="translate(43.865 7.425000000000001)"><g clip-path="url(#i0)"><polygon points="0.455,0.465 0.545,0.465 0.545,0.535 0.455,0.535 0.455,0.465" stroke="none" fill="#FFFFFF"></polygon></g></g><g transform="translate(14.40000000000007 8.179999999999968)"><g clip-path="url(#i1)"><polygon points="0,-3.55271368e-15 61.02,-3.55271368e-15 61.02,57.1954527 0,57.1954527 0,-3.55271368e-15" stroke="none" fill="#FFFFFF"></polygon></g></g><g transform="translate(28.640000000000008 72.79)"><g clip-path="url(#i2)"><polygon points="0,0 4.28,0 4.28,6.06 0,6.06 0,0" stroke="none" fill="#FFFFFF"></polygon></g></g><g transform="translate(34.67 72.66)"><g clip-path="url(#i3)"><polygon points="0,0 4.7,0 4.7,6.31 0,6.31 0,0" stroke="none" fill="#FFFFFF"></polygon></g></g><g transform="translate(44.010000000000005 72.79)"><g clip-path="url(#i2)"><polygon points="0,0 4.28,0 4.28,6.06 0,6.06 0,0" stroke="none" fill="#FFFFFF"></polygon></g></g><g transform="translate(50.040000000000006 72.66)"><g clip-path="url(#i4)"><polygon points="0,0 4.7,0 4.7,6.31 0,6.31 0,0" stroke="none" fill="#FFFFFF"></polygon></g></g><g transform="translate(57.120000000000005 72.79)"><g clip-path="url(#i5)"><polygon points="0,0 3.93,0 3.93,6.06 0,6.06 0,0" stroke="none" fill="#FFFFFF"></polygon></g></g></g></svg>